# xmcd
#
# Track frame offsets:
#	150
#	18422
#	35771
#	49674
#	66935
#	85372
#	101238
#	118787
#	135368
#	149377
#	165055
#	182445
#
# Disc length: 2639 seconds
#
# Revision: 0
# Processed by: cddbd v1.5.2PL0 Copyright (c) Steve Scherf et al.
# Submitted via: EasyCDDAExtractor 9.1.3.1
#
DISCID=9e0a4d0c
DTITLE=Darius Rucker - Learn To Live
DYEAR=2008
DGENRE=Country
TTITLE0=Forever Road
TTITLE1=All I Want
TTITLE2=Don't Think I Don't Think About It
TTITLE3=Learn To Live
TTITLE4=If I Had Wings
TTITLE5=History In The Making
TTITLE6=Alright
TTITLE7=It Won't Be Like This For Long
TTITLE8=Drinkin' And Dialin'
TTITLE9=I Hope They Get To Me In Time
TTITLE10=While I Still Got The Time
TTITLE11=Be Wary Of A Woman\n
EXTD=
EXTT0=
EXTT1=
EXTT2=
EXTT3=
EXTT4=
EXTT5=
EXTT6=
EXTT7=
EXTT8=
EXTT9=
EXTT10=
EXTT11=
PLAYORDER=
